<svg width="409" height="128" viewBox="0 0 409 128" fill="none" xmlns="http://www.w3.org/2000/svg">
<path d="M31.2868 91.7723H0.286804L0.570138 93.8289H30.5701L39.5035 127.25H42.0035C43.2202 127.25 50.2868 32.6427 50.2868 32.6427L60.1705 113.882H63.6705L73.7868 49.6104V94.8573L400.287 95.8856V91.7723L76.7868 90.2298L75.2868 35.2136H72.7868L62.2868 103.598L51.2868 0.25H49.7868L39.7868 121.08L31.2868 91.7723Z" fill="#BD628E"/>
<path d="M0.286804 91.7723C12.3931 91.7723 31.2868 91.7723 31.2868 91.7723M0.286804 91.7723L0.570138 93.8289M0.286804 91.7723H31.2868M31.2868 91.7723L39.7868 121.08L49.7868 0.25H51.2868L62.2868 103.598L72.7868 35.2136H75.2868L76.7868 90.2298L400.287 91.7723V95.8856L73.7868 94.8573V49.6104L63.6705 113.882H60.1705L50.2868 32.6427C50.2868 32.6427 43.2202 127.25 42.0035 127.25C40.7868 127.25 39.5035 127.25 39.5035 127.25L30.5701 93.8289M30.5701 93.8289C30.5701 93.8289 12.2859 93.8289 0.570138 93.8289M30.5701 93.8289H0.570138" stroke="#BD628E" stroke-width="0.5" stroke-linecap="round"/>
<path d="M87.1188 37.7609H95.3028L108.137 69.4429H108.385L121.219 37.7609H129.403V81.1609H123.637V44.4569H123.451L110.431 76.5109H106.091L93.0708 44.4569H92.8848V81.1609H87.1188V37.7609ZM154.421 81.6569C151.073 81.6569 148.221 81.0783 145.865 79.9209C143.55 78.7636 141.773 77.0896 140.533 74.8989C139.293 72.6669 138.673 69.9803 138.673 66.8389V62.0029C138.673 58.9029 139.313 56.2576 140.595 54.0669C141.917 51.8349 143.798 50.1403 146.237 48.9829C148.717 47.7843 151.651 47.1849 155.041 47.1849C160.207 47.1849 164.175 48.5696 166.945 51.3389C169.755 54.0669 171.161 57.9523 171.161 62.9949V65.9709H143.323V62.8709H166.573L165.705 64.0489V61.6309C165.705 58.4069 164.754 55.8856 162.853 54.0669C160.993 52.2483 158.43 51.3389 155.165 51.3389C151.817 51.3389 149.192 52.2689 147.291 54.1289C145.389 55.9476 144.439 58.5103 144.439 61.8169V67.4589C144.439 70.7656 145.327 73.3076 147.105 75.0849C148.923 76.8209 151.486 77.6889 154.793 77.6889C157.645 77.6889 159.959 77.0896 161.737 75.8909C163.555 74.6509 164.713 72.9149 165.209 70.6829L170.789 71.0549C169.921 74.4856 168.061 77.1103 165.209 78.9289C162.357 80.7476 158.761 81.6569 154.421 81.6569ZM192.946 81.6569C188.523 81.6569 185.092 80.3756 182.654 77.8129C180.256 75.2089 179.058 71.5303 179.058 66.7769V62.0649C179.058 57.3116 180.277 53.6536 182.716 51.0909C185.154 48.4869 188.606 47.1849 193.07 47.1849C196.335 47.1849 199.166 47.8256 201.564 49.1069C203.961 50.3883 205.821 52.2276 207.144 54.6249C208.508 56.9809 209.19 59.7916 209.19 63.0569V65.4749C209.19 68.7816 208.508 71.6543 207.144 74.0929C205.821 76.4903 203.94 78.3503 201.502 79.6729C199.104 80.9956 196.252 81.6569 192.946 81.6569ZM194.372 77.3789C198.174 77.3789 201.15 76.2836 203.3 74.0929C205.49 71.9023 206.586 68.8849 206.586 65.0409V63.5529C206.586 59.7916 205.49 56.8569 203.3 54.7489C201.15 52.5996 198.174 51.5249 194.372 51.5249C191.396 51.5249 189.06 52.4756 187.366 54.3769C185.671 56.2783 184.824 58.9649 184.824 62.4369V66.5289C184.824 69.9596 185.671 72.6256 187.366 74.5269C189.06 76.4283 191.396 77.3789 194.372 77.3789ZM206.586 70.1249V35.2809H212.414V81.1609H208.756L206.586 70.1249ZM229.055 47.6809V81.1609H223.289V47.6809H229.055ZM229.303 35.6529V43.3409H222.979V35.6529H229.303ZM251.105 60.7629V63.7389H234.427V60.7629H251.105ZM277.776 37.7609V42.0389H262.648L265.5 39.5589V81.1609H259.672V39.5589L262.462 42.0389H247.396V37.7609H277.776ZM293.921 81.6569C290.573 81.6569 287.721 81.0783 285.365 79.9209C283.05 78.7636 281.273 77.0896 280.033 74.8989C278.793 72.6669 278.173 69.9803 278.173 66.8389V62.0029C278.173 58.9029 278.813 56.2576 280.095 54.0669C281.417 51.8349 283.298 50.1403 285.737 48.9829C288.217 47.7843 291.151 47.1849 294.541 47.1849C299.707 47.1849 303.675 48.5696 306.445 51.3389C309.255 54.0669 310.661 57.9523 310.661 62.9949V65.9709H282.823V62.8709H306.073L305.205 64.0489V61.6309C305.205 58.4069 304.254 55.8856 302.353 54.0669C300.493 52.2483 297.93 51.3389 294.665 51.3389C291.317 51.3389 288.692 52.2689 286.791 54.1289C284.889 55.9476 283.939 58.5103 283.939 61.8169V67.4589C283.939 70.7656 284.827 73.3076 286.605 75.0849C288.423 76.8209 290.986 77.6889 294.293 77.6889C297.145 77.6889 299.459 77.0896 301.237 75.8909C303.055 74.6509 304.213 72.9149 304.709 70.6829L310.289 71.0549C309.421 74.4856 307.561 77.1103 304.709 78.9289C301.857 80.7476 298.261 81.6569 293.921 81.6569ZM334.493 81.6569C331.186 81.6569 328.334 81.0576 325.937 79.8589C323.54 78.6603 321.7 76.9656 320.419 74.7749C319.138 72.5429 318.497 69.8769 318.497 66.7769V62.0649C318.497 59.0063 319.138 56.3609 320.419 54.1289C321.742 51.8969 323.602 50.1816 325.999 48.9829C328.396 47.7843 331.228 47.1849 334.493 47.1849C339.246 47.1849 343.07 48.2803 345.963 50.4709C348.856 52.6203 350.53 55.5963 350.985 59.3989L345.405 59.8329C344.909 57.1049 343.752 55.0176 341.933 53.5709C340.156 52.1243 337.779 51.4009 334.803 51.4009C331.579 51.4009 329.016 52.3516 327.115 54.2529C325.214 56.1543 324.263 58.7376 324.263 62.0029V66.8389C324.263 70.1456 325.193 72.7496 327.053 74.6509C328.954 76.5109 331.538 77.4409 334.803 77.4409C337.779 77.4409 340.156 76.7176 341.933 75.2709C343.752 73.7829 344.909 71.6956 345.405 69.0089L350.985 69.4429C350.53 73.2043 348.856 76.1803 345.963 78.3709C343.07 80.5616 339.246 81.6569 334.493 81.6569ZM384.704 62.1889C384.704 58.5516 383.981 55.8856 382.534 54.1909C381.088 52.4963 378.814 51.6489 375.714 51.6489C372.242 51.6489 369.535 52.8269 367.592 55.1829C365.691 57.4976 364.74 60.8456 364.74 65.2269L362.446 69.2569L362.508 65.5989C362.508 59.6883 363.852 55.1416 366.538 51.9589C369.225 48.7763 373.028 47.1849 377.946 47.1849C382.204 47.1849 385.366 48.3629 387.432 50.7189C389.499 53.0336 390.532 56.6296 390.532 61.5069V81.1609H384.704V62.1889ZM358.974 35.2809H364.74V58.9029V81.1609H358.974V35.2809Z" fill="#624C8C"/>
<path d="M90.7204 107.559C90.0251 107.559 89.4079 107.695 88.8688 107.969C88.3376 108.234 87.8884 108.621 87.5212 109.129C87.1618 109.637 86.8884 110.25 86.7009 110.969C86.5134 111.688 86.4196 112.496 86.4196 113.395C86.4196 114.605 86.5681 115.641 86.8649 116.5C87.1696 117.352 87.6384 118.004 88.2712 118.457C88.904 118.902 89.7204 119.125 90.7204 119.125C91.4157 119.125 92.111 119.047 92.8063 118.891C93.5095 118.734 94.2712 118.512 95.0915 118.223V121.27C94.3337 121.582 93.5876 121.805 92.8532 121.938C92.1188 122.078 91.2946 122.148 90.3806 122.148C88.6149 122.148 87.1618 121.785 86.0212 121.059C84.8884 120.324 84.0485 119.301 83.5016 117.988C82.9548 116.668 82.6813 115.129 82.6813 113.371C82.6813 112.074 82.8571 110.887 83.2087 109.809C83.5602 108.73 84.0759 107.797 84.7556 107.008C85.4352 106.219 86.2751 105.609 87.2751 105.18C88.2751 104.75 89.4235 104.535 90.7204 104.535C91.572 104.535 92.4235 104.645 93.2751 104.863C94.1345 105.074 94.9548 105.367 95.736 105.742L94.5641 108.695C93.9235 108.391 93.279 108.125 92.6306 107.898C91.9821 107.672 91.3454 107.559 90.7204 107.559ZM110.373 115.34C110.373 116.434 110.224 117.402 109.927 118.246C109.638 119.09 109.213 119.805 108.65 120.391C108.095 120.969 107.424 121.406 106.634 121.703C105.853 122 104.97 122.148 103.986 122.148C103.064 122.148 102.216 122 101.443 121.703C100.677 121.406 100.009 120.969 99.4391 120.391C98.8766 119.805 98.4391 119.09 98.1266 118.246C97.822 117.402 97.6696 116.434 97.6696 115.34C97.6696 113.887 97.9274 112.656 98.4431 111.648C98.9587 110.641 99.6931 109.875 100.646 109.352C101.599 108.828 102.736 108.566 104.056 108.566C105.283 108.566 106.369 108.828 107.314 109.352C108.267 109.875 109.013 110.641 109.552 111.648C110.099 112.656 110.373 113.887 110.373 115.34ZM101.314 115.34C101.314 116.199 101.408 116.922 101.595 117.508C101.783 118.094 102.076 118.535 102.474 118.832C102.873 119.129 103.392 119.277 104.033 119.277C104.666 119.277 105.177 119.129 105.568 118.832C105.966 118.535 106.256 118.094 106.435 117.508C106.623 116.922 106.716 116.199 106.716 115.34C106.716 114.473 106.623 113.754 106.435 113.184C106.256 112.605 105.966 112.172 105.568 111.883C105.17 111.594 104.65 111.449 104.009 111.449C103.064 111.449 102.377 111.773 101.947 112.422C101.525 113.07 101.314 114.043 101.314 115.34ZM128.713 108.566C130.197 108.566 131.318 108.949 132.076 109.715C132.841 110.473 133.224 111.691 133.224 113.371V121.914H129.638V114.262C129.638 113.324 129.478 112.617 129.158 112.141C128.838 111.664 128.341 111.426 127.67 111.426C126.724 111.426 126.052 111.766 125.654 112.445C125.256 113.117 125.056 114.082 125.056 115.34V121.914H121.482V114.262C121.482 113.637 121.412 113.113 121.271 112.691C121.131 112.27 120.916 111.953 120.627 111.742C120.338 111.531 119.966 111.426 119.513 111.426C118.849 111.426 118.326 111.594 117.943 111.93C117.568 112.258 117.299 112.746 117.134 113.395C116.978 114.035 116.9 114.82 116.9 115.75V121.914H113.326V108.813H116.056L116.537 110.488H116.736C117.002 110.035 117.334 109.668 117.732 109.387C118.138 109.105 118.584 108.898 119.068 108.766C119.552 108.633 120.045 108.566 120.545 108.566C121.506 108.566 122.318 108.723 122.982 109.035C123.654 109.348 124.17 109.832 124.529 110.488H124.845C125.236 109.816 125.787 109.328 126.498 109.023C127.216 108.719 127.955 108.566 128.713 108.566ZM144.193 108.566C145.67 108.566 146.861 109.141 147.767 110.289C148.681 111.438 149.138 113.121 149.138 115.34C149.138 116.824 148.924 118.074 148.494 119.09C148.064 120.098 147.47 120.859 146.713 121.375C145.955 121.891 145.084 122.148 144.099 122.148C143.466 122.148 142.924 122.07 142.47 121.914C142.017 121.75 141.631 121.543 141.31 121.293C140.99 121.035 140.713 120.762 140.478 120.473H140.291C140.353 120.785 140.4 121.105 140.431 121.434C140.463 121.762 140.478 122.082 140.478 122.395V127.68H136.904V108.813H139.81L140.314 110.512H140.478C140.713 110.16 140.998 109.836 141.334 109.539C141.67 109.242 142.072 109.008 142.541 108.836C143.017 108.656 143.568 108.566 144.193 108.566ZM143.045 111.426C142.42 111.426 141.924 111.555 141.556 111.813C141.189 112.07 140.92 112.457 140.748 112.973C140.584 113.488 140.494 114.141 140.478 114.93V115.316C140.478 116.16 140.556 116.875 140.713 117.461C140.877 118.047 141.146 118.492 141.521 118.797C141.904 119.102 142.427 119.254 143.091 119.254C143.638 119.254 144.088 119.102 144.439 118.797C144.791 118.492 145.052 118.047 145.224 117.461C145.404 116.867 145.494 116.145 145.494 115.293C145.494 114.012 145.295 113.047 144.896 112.398C144.498 111.75 143.881 111.426 143.045 111.426ZM164.115 108.813V121.914H161.373L160.892 120.238H160.705C160.424 120.684 160.072 121.047 159.65 121.328C159.228 121.609 158.763 121.816 158.256 121.949C157.748 122.082 157.22 122.148 156.674 122.148C155.736 122.148 154.92 121.984 154.224 121.656C153.529 121.32 152.986 120.801 152.595 120.098C152.213 119.395 152.021 118.48 152.021 117.355V108.813H155.595V116.465C155.595 117.402 155.763 118.109 156.099 118.586C156.435 119.063 156.97 119.301 157.705 119.301C158.431 119.301 159.002 119.137 159.416 118.809C159.83 118.473 160.119 117.984 160.283 117.344C160.455 116.695 160.541 115.906 160.541 114.977V108.813H164.115ZM173.384 119.301C173.775 119.301 174.154 119.262 174.521 119.184C174.896 119.105 175.267 119.008 175.634 118.891V121.551C175.252 121.723 174.775 121.863 174.205 121.973C173.642 122.09 173.025 122.148 172.353 122.148C171.572 122.148 170.869 122.023 170.244 121.773C169.627 121.516 169.138 121.074 168.779 120.449C168.427 119.816 168.252 118.938 168.252 117.813V111.496H166.541V109.984L168.509 108.789L169.541 106.023H171.826V108.813H175.494V111.496H171.826V117.813C171.826 118.313 171.966 118.688 172.248 118.938C172.537 119.18 172.916 119.301 173.384 119.301ZM183.697 108.566C184.908 108.566 185.951 108.801 186.826 109.27C187.701 109.73 188.377 110.402 188.853 111.285C189.33 112.168 189.568 113.246 189.568 114.52V116.254H181.119C181.158 117.262 181.459 118.055 182.021 118.633C182.591 119.203 183.381 119.488 184.388 119.488C185.224 119.488 185.99 119.402 186.685 119.23C187.381 119.059 188.095 118.801 188.83 118.457V121.223C188.181 121.543 187.502 121.777 186.791 121.926C186.088 122.074 185.232 122.148 184.224 122.148C182.912 122.148 181.748 121.906 180.732 121.422C179.724 120.938 178.931 120.199 178.353 119.207C177.783 118.215 177.498 116.965 177.498 115.457C177.498 113.926 177.756 112.652 178.271 111.637C178.795 110.613 179.521 109.848 180.451 109.34C181.381 108.824 182.463 108.566 183.697 108.566ZM183.72 111.109C183.025 111.109 182.447 111.332 181.986 111.777C181.533 112.223 181.271 112.922 181.201 113.875H186.216C186.209 113.344 186.111 112.871 185.924 112.457C185.744 112.043 185.47 111.715 185.103 111.473C184.744 111.23 184.283 111.109 183.72 111.109ZM199.787 108.566C199.966 108.566 200.174 108.578 200.408 108.602C200.65 108.617 200.845 108.641 200.994 108.672L200.724 112.023C200.607 111.984 200.439 111.957 200.22 111.941C200.009 111.918 199.826 111.906 199.67 111.906C199.209 111.906 198.759 111.965 198.322 112.082C197.892 112.199 197.506 112.391 197.162 112.656C196.818 112.914 196.545 113.258 196.341 113.688C196.146 114.109 196.049 114.629 196.049 115.246V121.914H192.474V108.813H195.181L195.709 111.016H195.884C196.142 110.57 196.463 110.164 196.845 109.797C197.236 109.422 197.677 109.125 198.17 108.906C198.67 108.68 199.209 108.566 199.787 108.566ZM206.947 108.813V121.914H203.373V108.813H206.947ZM205.166 103.68C205.697 103.68 206.154 103.805 206.537 104.055C206.92 104.297 207.111 104.754 207.111 105.426C207.111 106.09 206.92 106.551 206.537 106.809C206.154 107.059 205.697 107.184 205.166 107.184C204.627 107.184 204.166 107.059 203.783 106.809C203.408 106.551 203.22 106.09 203.22 105.426C203.22 104.754 203.408 104.297 203.783 104.055C204.166 103.805 204.627 103.68 205.166 103.68ZM219.849 118.023C219.849 118.914 219.638 119.668 219.216 120.285C218.802 120.895 218.181 121.359 217.353 121.68C216.525 121.992 215.494 122.148 214.259 122.148C213.345 122.148 212.56 122.09 211.904 121.973C211.256 121.855 210.599 121.66 209.935 121.387V118.434C210.646 118.754 211.408 119.02 212.22 119.23C213.041 119.434 213.759 119.535 214.377 119.535C215.072 119.535 215.568 119.434 215.865 119.23C216.17 119.02 216.322 118.746 216.322 118.41C216.322 118.191 216.259 117.996 216.134 117.824C216.017 117.645 215.759 117.445 215.361 117.227C214.963 117 214.338 116.707 213.486 116.348C212.666 116.004 211.99 115.656 211.459 115.305C210.935 114.953 210.545 114.539 210.287 114.063C210.037 113.578 209.912 112.965 209.912 112.223C209.912 111.012 210.381 110.102 211.318 109.492C212.263 108.875 213.525 108.566 215.103 108.566C215.916 108.566 216.689 108.648 217.424 108.813C218.166 108.977 218.927 109.238 219.709 109.598L218.631 112.176C217.982 111.895 217.369 111.664 216.791 111.484C216.22 111.305 215.638 111.215 215.045 111.215C214.521 111.215 214.127 111.285 213.861 111.426C213.595 111.566 213.463 111.781 213.463 112.07C213.463 112.281 213.529 112.469 213.662 112.633C213.802 112.797 214.068 112.98 214.459 113.184C214.857 113.379 215.439 113.633 216.205 113.945C216.947 114.25 217.591 114.57 218.138 114.906C218.685 115.234 219.107 115.645 219.404 116.137C219.701 116.621 219.849 117.25 219.849 118.023ZM228.041 108.566C229.252 108.566 230.295 108.801 231.17 109.27C232.045 109.73 232.72 110.402 233.197 111.285C233.674 112.168 233.912 113.246 233.912 114.52V116.254H225.463C225.502 117.262 225.802 118.055 226.365 118.633C226.935 119.203 227.724 119.488 228.732 119.488C229.568 119.488 230.334 119.402 231.029 119.23C231.724 119.059 232.439 118.801 233.174 118.457V121.223C232.525 121.543 231.845 121.777 231.134 121.926C230.431 122.074 229.576 122.148 228.568 122.148C227.256 122.148 226.091 121.906 225.076 121.422C224.068 120.938 223.275 120.199 222.697 119.207C222.127 118.215 221.841 116.965 221.841 115.457C221.841 113.926 222.099 112.652 222.615 111.637C223.138 110.613 223.865 109.848 224.795 109.34C225.724 108.824 226.806 108.566 228.041 108.566ZM228.064 111.109C227.369 111.109 226.791 111.332 226.33 111.777C225.877 112.223 225.615 112.922 225.545 113.875H230.56C230.552 113.344 230.455 112.871 230.267 112.457C230.088 112.043 229.814 111.715 229.447 111.473C229.088 111.23 228.627 111.109 228.064 111.109ZM240.966 122.148C239.506 122.148 238.314 121.578 237.392 120.438C236.478 119.289 236.021 117.605 236.021 115.387C236.021 113.145 236.486 111.449 237.416 110.301C238.345 109.145 239.56 108.566 241.06 108.566C241.685 108.566 242.236 108.652 242.713 108.824C243.189 108.996 243.599 109.227 243.943 109.516C244.295 109.805 244.591 110.129 244.834 110.488H244.951C244.904 110.238 244.845 109.871 244.775 109.387C244.713 108.895 244.681 108.391 244.681 107.875V103.68H248.267V121.914H245.525L244.834 120.215H244.681C244.455 120.574 244.17 120.902 243.826 121.199C243.49 121.488 243.088 121.719 242.619 121.891C242.15 122.063 241.599 122.148 240.966 122.148ZM242.22 119.301C243.197 119.301 243.884 119.012 244.283 118.434C244.689 117.848 244.904 116.969 244.927 115.797V115.41C244.927 114.137 244.732 113.164 244.341 112.492C243.951 111.813 243.224 111.473 242.162 111.473C241.373 111.473 240.756 111.813 240.31 112.492C239.865 113.172 239.642 114.152 239.642 115.434C239.642 116.715 239.865 117.68 240.31 118.328C240.763 118.977 241.4 119.301 242.22 119.301ZM258.521 121.914V104.781H262.154V118.914H269.103V121.914H258.521ZM277.177 108.543C278.935 108.543 280.283 108.926 281.22 109.691C282.158 110.457 282.627 111.621 282.627 113.184V121.914H280.131L279.439 120.133H279.345C278.97 120.602 278.588 120.984 278.197 121.281C277.806 121.578 277.357 121.797 276.849 121.938C276.341 122.078 275.724 122.148 274.998 122.148C274.224 122.148 273.529 122 272.912 121.703C272.302 121.406 271.822 120.953 271.47 120.344C271.119 119.727 270.943 118.945 270.943 118C270.943 116.609 271.431 115.586 272.408 114.93C273.384 114.266 274.849 113.898 276.802 113.828L279.076 113.758V113.184C279.076 112.496 278.896 111.992 278.537 111.672C278.177 111.352 277.677 111.191 277.037 111.191C276.404 111.191 275.783 111.281 275.174 111.461C274.564 111.641 273.955 111.867 273.345 112.141L272.162 109.727C272.857 109.359 273.634 109.07 274.494 108.859C275.361 108.648 276.256 108.543 277.177 108.543ZM279.076 115.844L277.693 115.891C276.537 115.922 275.732 116.129 275.279 116.512C274.834 116.895 274.611 117.398 274.611 118.023C274.611 118.57 274.771 118.961 275.091 119.195C275.412 119.422 275.83 119.535 276.345 119.535C277.111 119.535 277.756 119.309 278.279 118.855C278.81 118.402 279.076 117.758 279.076 116.922V115.844ZM289.892 103.68V107.922C289.892 108.414 289.877 108.902 289.845 109.387C289.822 109.871 289.791 110.246 289.752 110.512H289.892C290.236 109.973 290.705 109.516 291.299 109.141C291.892 108.758 292.662 108.566 293.607 108.566C295.076 108.566 296.267 109.141 297.181 110.289C298.095 111.438 298.552 113.121 298.552 115.34C298.552 116.832 298.341 118.086 297.92 119.102C297.498 120.109 296.908 120.871 296.15 121.387C295.392 121.895 294.513 122.148 293.513 122.148C292.552 122.148 291.795 121.977 291.24 121.633C290.685 121.289 290.236 120.902 289.892 120.473H289.646L289.049 121.914H286.318V103.68H289.892ZM292.459 111.426C291.834 111.426 291.338 111.555 290.97 111.813C290.603 112.07 290.334 112.457 290.162 112.973C289.998 113.488 289.908 114.141 289.892 114.93V115.316C289.892 116.59 290.08 117.566 290.455 118.246C290.83 118.918 291.513 119.254 292.506 119.254C293.24 119.254 293.822 118.914 294.252 118.234C294.689 117.555 294.908 116.574 294.908 115.293C294.908 114.012 294.689 113.047 294.252 112.398C293.814 111.75 293.216 111.426 292.459 111.426ZM313.412 115.34C313.412 116.434 313.263 117.402 312.966 118.246C312.677 119.09 312.252 119.805 311.689 120.391C311.134 120.969 310.463 121.406 309.674 121.703C308.892 122 308.009 122.148 307.025 122.148C306.103 122.148 305.256 122 304.482 121.703C303.716 121.406 303.049 120.969 302.478 120.391C301.916 119.805 301.478 119.09 301.166 118.246C300.861 117.402 300.709 116.434 300.709 115.34C300.709 113.887 300.966 112.656 301.482 111.648C301.998 110.641 302.732 109.875 303.685 109.352C304.638 108.828 305.775 108.566 307.095 108.566C308.322 108.566 309.408 108.828 310.353 109.352C311.306 109.875 312.052 110.641 312.591 111.648C313.138 112.656 313.412 113.887 313.412 115.34ZM304.353 115.34C304.353 116.199 304.447 116.922 304.634 117.508C304.822 118.094 305.115 118.535 305.513 118.832C305.912 119.129 306.431 119.277 307.072 119.277C307.705 119.277 308.216 119.129 308.607 118.832C309.006 118.535 309.295 118.094 309.474 117.508C309.662 116.922 309.756 116.199 309.756 115.34C309.756 114.473 309.662 113.754 309.474 113.184C309.295 112.605 309.006 112.172 308.607 111.883C308.209 111.594 307.689 111.449 307.049 111.449C306.103 111.449 305.416 111.773 304.986 112.422C304.564 113.07 304.353 114.043 304.353 115.34ZM323.677 108.566C323.857 108.566 324.064 108.578 324.299 108.602C324.541 108.617 324.736 108.641 324.884 108.672L324.615 112.023C324.498 111.984 324.33 111.957 324.111 111.941C323.9 111.918 323.716 111.906 323.56 111.906C323.099 111.906 322.65 111.965 322.213 112.082C321.783 112.199 321.396 112.391 321.052 112.656C320.709 112.914 320.435 113.258 320.232 113.688C320.037 114.109 319.939 114.629 319.939 115.246V121.914H316.365V108.813H319.072L319.599 111.016H319.775C320.033 110.57 320.353 110.164 320.736 109.797C321.127 109.422 321.568 109.125 322.06 108.906C322.56 108.68 323.099 108.566 323.677 108.566ZM332.631 108.543C334.388 108.543 335.736 108.926 336.674 109.691C337.611 110.457 338.08 111.621 338.08 113.184V121.914H335.584L334.892 120.133H334.799C334.424 120.602 334.041 120.984 333.65 121.281C333.259 121.578 332.81 121.797 332.302 121.938C331.795 122.078 331.177 122.148 330.451 122.148C329.677 122.148 328.982 122 328.365 121.703C327.756 121.406 327.275 120.953 326.924 120.344C326.572 119.727 326.396 118.945 326.396 118C326.396 116.609 326.884 115.586 327.861 114.93C328.838 114.266 330.302 113.898 332.256 113.828L334.529 113.758V113.184C334.529 112.496 334.349 111.992 333.99 111.672C333.631 111.352 333.131 111.191 332.49 111.191C331.857 111.191 331.236 111.281 330.627 111.461C330.017 111.641 329.408 111.867 328.799 112.141L327.615 109.727C328.31 109.359 329.088 109.07 329.947 108.859C330.814 108.648 331.709 108.543 332.631 108.543ZM334.529 115.844L333.146 115.891C331.99 115.922 331.185 116.129 330.732 116.512C330.287 116.895 330.064 117.398 330.064 118.023C330.064 118.57 330.224 118.961 330.545 119.195C330.865 119.422 331.283 119.535 331.799 119.535C332.564 119.535 333.209 119.309 333.732 118.855C334.263 118.402 334.529 117.758 334.529 116.922V115.844ZM347.291 119.301C347.681 119.301 348.06 119.262 348.427 119.184C348.802 119.105 349.174 119.008 349.541 118.891V121.551C349.158 121.723 348.681 121.863 348.111 121.973C347.549 122.09 346.931 122.148 346.259 122.148C345.478 122.148 344.775 122.023 344.15 121.773C343.533 121.516 343.045 121.074 342.685 120.449C342.334 119.816 342.158 118.938 342.158 117.813V111.496H340.447V109.984L342.416 108.789L343.447 106.023H345.732V108.813H349.4V111.496H345.732V117.813C345.732 118.313 345.873 118.688 346.154 118.938C346.443 119.18 346.822 119.301 347.291 119.301ZM364.107 115.34C364.107 116.434 363.959 117.402 363.662 118.246C363.373 119.09 362.947 119.805 362.384 120.391C361.83 120.969 361.158 121.406 360.369 121.703C359.588 122 358.705 122.148 357.72 122.148C356.799 122.148 355.951 122 355.177 121.703C354.412 121.406 353.744 120.969 353.174 120.391C352.611 119.805 352.174 119.09 351.861 118.246C351.556 117.402 351.404 116.434 351.404 115.34C351.404 113.887 351.662 112.656 352.177 111.648C352.693 110.641 353.427 109.875 354.381 109.352C355.334 108.828 356.47 108.566 357.791 108.566C359.017 108.566 360.103 108.828 361.049 109.352C362.002 109.875 362.748 110.641 363.287 111.648C363.834 112.656 364.107 113.887 364.107 115.34ZM355.049 115.34C355.049 116.199 355.142 116.922 355.33 117.508C355.517 118.094 355.81 118.535 356.209 118.832C356.607 119.129 357.127 119.277 357.767 119.277C358.4 119.277 358.912 119.129 359.302 118.832C359.701 118.535 359.99 118.094 360.17 117.508C360.357 116.922 360.451 116.199 360.451 115.34C360.451 114.473 360.357 113.754 360.17 113.184C359.99 112.605 359.701 112.172 359.302 111.883C358.904 111.594 358.384 111.449 357.744 111.449C356.799 111.449 356.111 111.773 355.681 112.422C355.259 113.07 355.049 114.043 355.049 115.34ZM374.373 108.566C374.552 108.566 374.759 108.578 374.994 108.602C375.236 108.617 375.431 108.641 375.58 108.672L375.31 112.023C375.193 111.984 375.025 111.957 374.806 111.941C374.595 111.918 374.412 111.906 374.256 111.906C373.795 111.906 373.345 111.965 372.908 112.082C372.478 112.199 372.091 112.391 371.748 112.656C371.404 112.914 371.131 113.258 370.927 113.688C370.732 114.109 370.634 114.629 370.634 115.246V121.914H367.06V108.813H369.767L370.295 111.016H370.47C370.728 110.57 371.049 110.164 371.431 109.797C371.822 109.422 372.263 109.125 372.756 108.906C373.256 108.68 373.795 108.566 374.373 108.566ZM376.084 108.813H379.998L382.47 116.184C382.549 116.418 382.615 116.656 382.67 116.898C382.724 117.141 382.771 117.391 382.81 117.648C382.849 117.906 382.881 118.176 382.904 118.457H382.974C383.021 118.035 383.084 117.641 383.162 117.273C383.248 116.906 383.353 116.543 383.478 116.184L385.904 108.813H389.736L384.193 123.59C383.857 124.496 383.42 125.25 382.881 125.852C382.341 126.461 381.72 126.918 381.017 127.223C380.322 127.527 379.556 127.68 378.72 127.68C378.314 127.68 377.963 127.656 377.666 127.609C377.369 127.57 377.115 127.527 376.904 127.48V124.645C377.068 124.684 377.275 124.719 377.525 124.75C377.775 124.781 378.037 124.797 378.31 124.797C378.81 124.797 379.24 124.691 379.599 124.48C379.959 124.27 380.259 123.984 380.502 123.625C380.744 123.273 380.935 122.887 381.076 122.465L381.287 121.82L376.084 108.813Z" fill="#624C8C"/>
</svg>
